# xmcd CD database file
#
# Track frame offsets:
#	150
#	10760
#	20570
#
# Disc length: 481 seconds
#
# Revision: 0
# Processed by: cddbd v1.5.1PL0 Copyright (c) Steve Scherf et al.
# Submitted via: CDex 1.50
#
DISCID=1701df03
DTITLE=Dead Ringer Band - Australian Son
DYEAR=1900
DGENRE=Country
TTITLE0=Australian Son
TTITLE1=Guitar Talk
TTITLE2=Lonely Child
EXTD=
EXTT0=
EXTT1=
EXTT2=
PLAYORDER=
